{"title":"Indumati (2015) HDRip (x265 HEVC) Hindi Audio - SSEC","uid":13440554,"size":309721829,"categoryP":"video","categoryS":"movies","magnet":"?xt=urn:btih:271b00c71603488ca9c0030a8f698bd6d7283d4f&amp;dn=Indumati+%282015%29+HDRip+%28x265+HEVC%29+Hindi+Audio+-+SSEC&amp;tr=udp%3A%2F%2Ftracker.leechers-paradise.org%3A6969&amp;tr=udp%3A%2F%2Fzer0day.ch%3A1337&amp;tr=udp%3A%2F%2Fopen.demonii.com%3A1337&amp;tr=udp%3A%2F%2Ftracker.coppersurfer.tk%3A6969&amp;tr=udp%3A%2F%2Fexodus.desync.com%3A6969","seeders":0,"leechers":1,"uploader":"Lion.King","files":3,"time":1454695971,"description":"General\r\nUnique ID : 224268284609200290910917096039737781544 (0xA8B8802025970BA2AEDA11A12034ED28)\r\nComplete name : Indumati (2015) HDRip (x265 HEVC) Hindi Audio - SSEC.mkv\r\nFormat : Matroska\r\nFormat version : Version 4 / Version 2\r\nFile size : 295 MiB\r\nDuration : 1h 36mn\r\nOverall bit rate : 430 Kbps\r\nMovie name : Indumati (2015) HDRip (x265 HEVC)Hindi Audio - SSEC\r\nEncoded date : UTC 2016-02-05 16:11:27\r\nWriting application : mkvmerge v7.9.0 ('Birds') 64bit\r\nWriting library : libebml v1.3.1 + libmatroska v1.4.2\r\nDURATION : 01:36:02.784000000\r\nNUMBER_OF_FRAMES : 240116\r\nNUMBER_OF_BYTES : 69153408\r\n_STATISTICS_WRITING_APP : mkvmerge v7.9.0 ('Birds') 64bit\r\n_STATISTICS_WRITING_DATE_UT : 2016-02-05 16:11:27\r\n_STATISTICS_TAGS : BPS DURATION NUMBER_OF_FRAMES NUMBER_OF_BYTES\r\n\r\nVideo\r\nID : 1\r\nFormat : HEVC\r\nFormat/Info : High Efficiency Video Coding\r\nFormat profile :   @Main\r\nCodec ID : V_MPEGH/ISO/HEVC\r\nDuration : 1h 36mn\r\nBit rate : 325 Kbps\r\nWidth : 678 pixels\r\nHeight : 382 pixels\r\nDisplay aspect ratio : 16:9\r\nFrame rate mode : Constant\r\nFrame rate : 25.000 fps\r\nColor space : YUV\r\nChroma subsampling : 4:2:0\r\nBit depth : 8 bits\r\nBits/(Pixel*Frame) : 0.050\r\nStream size : 223 MiB (76%)\r\nTitle : Indumati (2015) HDRip (x265 HEVC)Hindi Audio - SSEC\r\nWriting library : x265 1.5:[Windows][GCC 4.9.0][64 bit]\r\nEncoding settings : wpp / ctu=32 / tu-intra-depth=1 / tu-inter-depth=1 / me=0 / subme=0 / merange=25 / no-rect / no-amp / max-merge=2 / temporal-mvp / early-skip / no-fast-cbf / rdpenalty=0 / no-tskip / no-tskip-fast / strong-intra-smoothing / no-lossless / no-cu-lossless / no-constrained-intra / fast-intra / open-gop / interlace=0 / keyint=250 / min-keyint=25 / scenecut=0 / rc-lookahead=10 / bframes=4 / bframe-bias=0 / b-adapt=0 / ref=1 / no-weightp / no-weightb / aq-mode=0 / aq-strength=0.00 / cbqpoffs=0 / crqpoffs=0 / rd=2 / psy-rd=0.30 / psy-rdoq=0.00 / no-signhide / lft / no-sao / no-sao-non-deblock / b-pyramid / no-cutree / rc=crf / crf=25.0 / qcomp=0.60 / qpmin=0 / qpmax=51 / qpstep=4 / ipratio=1.40 / pbratio=1.30\r\nLanguage : Hindi\r\nDefault : Yes\r\nForced : No\r\nColor range : Limited\r\nColor primaries : BT.601 PAL\r\nTransfer characteristics : BT.709\r\nMatrix coefficients : BT.601\r\nDURATION : 01:36:02.720000000\r\nNUMBER_OF_FRAMES : 144068\r\nNUMBER_OF_BYTES : 239195392\r\n_STATISTICS_WRITING_APP : mkvmerge v7.9.0 ('Birds') 64bit\r\n_STATISTICS_WRITING_DATE_UT : 2016-02-05 16:11:27\r\n_STATISTICS_TAGS : BPS DURATION NUMBER_OF_FRAMES NUMBER_OF_BYTES\r\n\r\nAudio\r\nID : 2\r\nFormat : MPEG Audio\r\nFormat version : Version 1\r\nFormat profile : Layer 3\r\nMode : Joint stereo\r\nMode extension : MS Stereo\r\nCodec ID : A_MPEG/L3\r\nCodec ID/Hint : MP3\r\nDuration : 1h 36mn\r\nBit rate mode : Constant\r\nBit rate : 96.0 Kbps\r\nChannel(s) : 2 channels\r\nSampling rate : 48.0 KHz\r\nCompression mode : Lossy\r\nDelay relative to video : -80ms\r\nStream size : 65.9 MiB (22%)\r\nTitle : SSEV\r\nWriting library : LAME3.99.5\r\nLanguage : Hindi\r\nDefault : Yes\r\nForced : No","torrent":{"xt":"urn:btih:271b00c71603488ca9c0030a8f698bd6d7283d4f","amp;dn":"Indumati+%282015%29+HDRip+%28x265+HEVC%29+Hindi+Audio+-+SSEC","amp;tr":["udp%3A%2F%2Ftracker.leechers-paradise.org%3A6969","udp%3A%2F%2Fzer0day.ch%3A1337","udp%3A%2F%2Fopen.demonii.com%3A1337","udp%3A%2F%2Ftracker.coppersurfer.tk%3A6969","udp%3A%2F%2Fexodus.desync.com%3A6969"],"infoHash":"271b00c71603488ca9c0030a8f698bd6d7283d4f","infoHashBuffer":{"type":"Buffer","data":[39,27,0,199,22,3,72,140,169,192,3,10,143,105,139,214,215,40,61,79]},"announce":[],"urlList":[]}}